<svg width="287" height="88" viewBox="0 0 287 88" fill="none" xmlns="http://www.w3.org/2000/svg">
<path d="M153.38 39.6963C154.661 40.4646 155.685 41.233 156.453 42.5135C157.222 43.794 157.478 45.0746 157.478 46.6112C157.478 48.1479 157.222 49.4284 156.453 50.709C155.685 51.9895 154.661 52.7579 153.38 53.5262C152.1 54.2945 150.819 54.5506 149.282 54.5506C147.746 54.5506 146.465 54.2945 145.185 53.5262C143.904 52.7579 142.88 51.9895 142.111 50.709C141.343 49.4284 141.087 48.1479 141.087 46.6112C141.087 45.0746 141.343 43.794 142.111 42.5135C142.88 41.233 143.904 40.4646 145.185 39.6963C146.465 38.928 147.746 38.6719 149.282 38.6719C150.819 38.6719 152.1 39.1841 153.38 39.6963ZM151.075 49.9407C151.587 49.6845 152.1 49.1723 152.356 48.6601C152.612 48.1479 152.868 47.3796 152.868 46.6112C152.868 45.8429 152.612 45.0746 152.356 44.5624C152.1 44.0502 151.587 43.5379 151.075 43.2818C150.563 43.0257 150.051 42.7696 149.282 42.7696C148.514 42.7696 148.002 43.0257 147.49 43.2818C146.977 43.5379 146.465 44.0502 146.209 44.5624C145.953 45.0746 145.441 45.8429 145.441 46.6112C145.441 47.3796 145.697 48.1479 145.953 48.6601C146.209 49.1723 146.721 49.6845 147.234 49.9407C147.746 50.1968 148.514 50.4529 149.026 50.4529C149.795 50.4529 150.307 50.1968 151.075 49.9407Z" fill="#FE5000"/>
<path d="M172.334 39.4418C173.102 39.954 173.87 40.7223 174.382 41.7468C174.895 42.7712 175.151 43.7956 175.151 45.0762V51.4789C175.151 53.0156 173.87 54.2961 172.334 54.2961H170.797C170.541 54.2961 170.285 54.04 170.285 53.7839V46.1006C170.285 45.3323 170.029 44.564 169.516 44.0517C169.004 43.5395 168.492 43.2834 167.724 43.2834C166.699 43.2834 165.931 43.5395 165.419 44.3079C164.906 45.0762 164.65 46.1006 164.65 47.3812V51.4789C164.65 53.0156 163.37 54.2961 161.833 54.2961H160.296C160.04 54.2961 159.784 54.04 159.784 53.7839V39.6979C159.784 39.4418 160.04 39.1857 160.296 39.1857H164.138C164.394 39.1857 164.65 39.4418 164.65 39.6979V40.7223C165.162 40.2101 165.931 39.6979 166.699 39.4418C167.467 39.1857 168.236 38.9296 169.26 38.9296C170.541 38.6735 171.565 38.9296 172.334 39.4418Z" fill="#FE5000"/>
<path d="M187.7 54.2963C187.188 54.5524 186.419 54.5524 185.651 54.5524C183.858 54.5524 182.322 54.0402 181.297 53.0157C180.273 51.9913 179.761 50.4547 179.761 48.6619V43.0275H177.456C177.199 43.0275 176.943 42.7714 176.943 42.5153V39.6981C176.943 39.442 177.199 39.1859 177.456 39.1859H179.761V35.3442C179.761 35.0881 180.017 34.832 180.273 34.832H183.858C184.114 34.832 184.37 35.0881 184.37 35.3442V39.1859H188.212C188.468 39.1859 188.724 39.442 188.724 39.6981V40.2103C188.724 41.747 187.444 43.0275 185.907 43.0275H184.37V48.1497C184.37 49.6863 185.139 50.1986 186.419 50.1986C186.675 50.1986 187.188 50.1985 187.444 49.9424C187.7 49.9424 187.956 49.6863 187.956 49.6863C188.212 49.6863 188.468 49.6863 188.468 49.9424L189.237 52.7596C189.237 53.0158 189.237 53.2719 188.98 53.2719C188.724 53.7841 188.212 54.0402 187.7 54.2963Z" fill="#FE5000"/>
<path d="M195.128 47.8918C194.872 47.8918 194.872 47.8918 195.128 47.8918C195.128 48.9162 195.64 49.4284 196.152 49.9407C196.664 50.4529 197.433 50.709 198.201 50.709C199.482 50.709 200.506 50.1968 201.274 49.1723C201.274 48.9162 201.531 48.9162 201.787 48.9162L204.86 49.6845C205.116 49.6845 205.372 50.1968 205.116 50.4529C204.604 51.7334 203.579 52.7578 202.555 53.2701C201.274 54.0384 199.738 54.5506 197.945 54.5506C196.408 54.5506 195.128 54.2945 194.103 53.5262C192.823 52.7579 192.054 51.9895 191.286 50.709C190.518 49.4284 190.262 48.1479 190.262 46.6112C190.262 45.0746 190.518 43.794 191.286 42.5135C192.054 41.233 192.823 40.4646 194.103 39.6963C195.384 38.928 196.664 38.6719 198.201 38.6719C199.482 38.6719 201.018 38.928 202.043 39.6963C203.067 40.4646 204.092 41.233 204.86 42.5135C205.628 43.794 205.884 45.0746 205.884 46.6112V47.3796C205.884 47.6357 205.628 47.8918 205.372 47.8918H195.128ZM196.152 43.2818C195.64 43.5379 195.128 44.3063 194.872 44.8185V45.0746H200.762C200.762 45.0746 201.018 45.0746 201.018 44.8185C200.762 44.0502 200.506 43.5379 199.994 43.2818C199.482 42.7696 198.713 42.7696 198.201 42.7696C197.433 42.5135 196.921 42.7696 196.152 43.2818Z" fill="#FE5000"/>
<path d="M257.617 47.8918C257.617 47.8918 257.361 47.8918 257.617 47.8918C257.617 48.9162 258.129 49.4284 258.641 49.9407C259.154 50.4529 259.922 50.709 260.69 50.709C261.971 50.709 262.995 50.1968 263.764 49.1723C263.764 48.9162 264.02 48.9162 264.276 48.9162L267.349 49.6845C267.605 49.6845 267.861 50.1968 267.605 50.4529C267.093 51.7334 266.069 52.7578 265.044 53.2701C263.764 54.0384 262.227 54.5506 260.434 54.5506C258.898 54.5506 257.617 54.2945 256.593 53.5262C255.312 52.7579 254.544 51.9895 253.775 50.709C253.007 49.4284 252.751 48.1479 252.751 46.6112C252.751 45.0746 253.007 43.794 253.775 42.5135C254.544 41.233 255.312 40.4646 256.593 39.6963C257.873 38.928 259.154 38.6719 260.69 38.6719C261.971 38.6719 263.251 38.928 264.532 39.6963C265.813 40.4646 266.581 41.233 267.349 42.5135C268.117 43.794 268.374 45.0746 268.374 46.6112V47.3796C268.374 47.6357 268.118 47.8918 267.861 47.8918H257.617ZM258.641 43.2818C258.129 43.5379 257.617 44.3063 257.361 44.8185V45.0746H263.251C263.251 45.0746 263.508 45.0746 263.508 44.8185C263.251 44.0502 262.995 43.5379 262.483 43.2818C261.971 42.7696 261.203 42.7696 260.69 42.7696C259.922 42.5135 259.41 42.7696 258.641 43.2818Z" fill="#FE5000"/>
<path d="M212.541 53.7828L206.907 39.9529C206.651 39.6968 206.907 39.1846 207.419 39.1846H211.261C211.517 39.1846 211.773 39.4407 211.773 39.4407L215.103 48.4045L218.432 39.4407C218.432 39.1846 218.688 39.1846 218.944 39.1846H222.786C223.298 39.1846 223.554 39.6968 223.298 39.9529L218.176 52.5022C217.664 53.5267 216.639 54.295 215.615 54.295H213.054C212.798 54.0389 212.541 54.0389 212.541 53.7828Z" fill="#FE5000"/>
<path d="M226.373 39.1846H230.214C230.47 39.1846 230.726 39.4407 230.726 39.6968V51.4778C230.726 53.0145 229.446 54.295 227.909 54.295H226.373C226.116 54.295 225.86 54.0389 225.86 53.7828V39.6968C225.86 39.4407 226.116 39.1846 226.373 39.1846Z" fill="#FE5000"/>
<path d="M245.325 53.5275V52.7592C244.044 53.7836 242.508 54.2958 240.715 54.2958C239.434 54.2958 238.154 54.0397 237.129 53.2714C236.105 52.5031 235.081 51.7348 234.568 50.4542C233.8 49.1737 233.544 47.8931 233.544 46.3565C233.544 44.8198 233.8 43.5393 234.568 42.2587C235.337 40.7221 236.361 39.6976 237.898 39.1854C238.922 38.6732 239.947 38.4171 240.971 38.4171C242.764 38.4171 244.301 38.9293 245.325 39.9538V33.8071C245.325 33.551 245.581 33.2949 245.837 33.2949H249.679C249.935 33.2949 250.191 33.551 250.191 33.8071V50.7103C250.191 52.247 248.91 53.5275 247.374 53.5275H245.837C245.581 54.0397 245.325 53.7836 245.325 53.5275ZM243.532 49.942C244.044 49.6859 244.557 49.1737 244.813 48.6614C245.069 48.1492 245.325 47.3809 245.325 46.6126C245.325 45.8443 245.069 45.332 244.813 44.5637C244.557 44.0515 244.044 43.5393 243.532 43.2832C243.02 43.0271 242.252 42.7709 241.739 42.7709C240.715 42.7709 239.947 43.0271 239.178 43.7954C238.41 44.5637 238.154 45.332 238.154 46.6126C238.154 47.637 238.41 48.6614 239.178 49.4298C239.947 50.1981 240.715 50.4542 241.739 50.4542C242.508 50.4542 243.02 50.1981 243.532 49.942Z" fill="#FE5000"/>
<path d="M282.204 39.6963C283.485 40.4646 284.509 41.233 285.278 42.5135C286.046 43.794 286.302 45.0746 286.302 46.6112C286.302 48.1479 286.046 49.4284 285.278 50.709C284.509 51.9895 283.485 52.7579 282.204 53.5262C280.924 54.2945 279.643 54.5506 278.107 54.5506C276.57 54.5506 275.289 54.2945 274.009 53.5262C272.728 52.7579 271.704 51.9895 270.936 50.709C270.167 49.4284 269.911 48.1479 269.911 46.6112C269.911 45.0746 270.167 43.794 270.936 42.5135C271.704 41.233 272.728 40.4646 274.009 39.6963C275.289 38.928 276.57 38.6719 278.107 38.6719C279.643 38.6719 281.18 39.1841 282.204 39.6963ZM279.899 49.9407C280.412 49.6845 280.924 49.1723 281.18 48.6601C281.436 48.1479 281.692 47.3796 281.692 46.6112C281.692 45.8429 281.436 45.0746 281.18 44.5624C280.924 44.0502 280.412 43.5379 279.899 43.2818C279.387 43.0257 278.875 42.7696 278.107 42.7696C277.338 42.7696 276.826 43.0257 276.314 43.2818C275.802 43.5379 275.289 44.0502 275.033 44.5624C274.777 45.0746 274.521 45.8429 274.521 46.6112C274.521 47.3796 274.777 48.1479 275.033 48.6601C275.289 49.1723 275.802 49.6845 276.314 49.9407C276.826 50.1968 277.594 50.4529 278.107 50.4529C278.875 50.4529 279.387 50.1968 279.899 49.9407Z" fill="#FE5000"/>
<path d="M162.857 66.8444C163.626 67.3566 164.394 68.1249 164.906 69.1493C165.419 70.1738 165.675 71.1982 165.675 72.4787V78.6254C165.675 80.162 164.394 81.4425 162.857 81.4425H161.577C161.321 81.4425 161.065 81.1864 161.065 80.9303V73.2471C161.065 72.4787 160.809 71.7104 160.296 71.1982C159.784 70.686 159.272 70.4299 158.504 70.4299C157.479 70.4299 156.711 70.686 156.199 71.4543C155.686 72.2226 155.43 73.2471 155.43 74.5276V78.6254C155.43 80.162 154.15 81.4425 152.613 81.4425H151.333C151.076 81.4425 150.82 81.1864 150.82 80.9303V61.7222C150.82 61.4661 151.076 61.21 151.333 61.21H155.174C155.43 61.21 155.686 61.4661 155.686 61.7222V67.8688C156.967 66.5882 158.504 66.076 160.296 66.076C161.065 66.076 162.089 66.3321 162.857 66.8444Z" fill="#FE5000"/>
<path d="M180.529 67.1016C181.809 67.8699 182.834 68.6382 183.602 69.9188C184.37 71.1993 184.626 72.4799 184.626 74.0165C184.626 75.5532 184.37 76.8337 183.602 78.1143C182.834 79.3948 181.809 80.1631 180.529 80.9315C179.248 81.6998 177.967 81.9559 176.431 81.9559C174.894 81.9559 173.614 81.6998 172.333 80.9315C171.053 80.1631 170.028 79.3948 169.26 78.1143C168.491 76.8337 168.235 75.5532 168.235 74.0165C168.235 72.4799 168.491 71.1993 169.26 69.9188C170.028 68.6382 171.053 67.8699 172.333 67.1016C173.614 66.3333 174.894 66.0771 176.431 66.0771C177.711 66.0771 179.248 66.5894 180.529 67.1016ZM177.967 77.3459C178.48 77.0898 178.992 76.5776 179.248 76.0654C179.504 75.5532 179.76 74.7849 179.76 74.0165C179.76 73.2482 179.504 72.4799 179.248 71.9677C178.992 71.4554 178.48 70.9432 177.967 70.6871C177.455 70.431 176.943 70.1749 176.175 70.1749C175.406 70.1749 174.894 70.431 174.382 70.6871C173.87 70.9432 173.358 71.4554 173.101 71.9677C172.845 72.4799 172.589 73.2482 172.589 74.0165C172.589 74.7849 172.845 75.5532 173.101 76.0654C173.358 76.5776 173.87 77.0898 174.382 77.3459C174.894 77.602 175.663 77.8581 176.175 77.8581C176.943 77.8581 177.455 77.602 177.967 77.3459Z" fill="#FE5000"/>
<path d="M230.215 60.1843C230.727 60.6966 230.983 61.4649 230.983 61.9771C230.983 62.7454 230.727 63.2576 230.215 63.7699C229.702 64.2821 228.934 64.5382 228.166 64.5382C227.398 64.5382 226.629 64.2821 226.117 63.7699C225.605 63.2576 225.349 62.7454 225.349 61.9771C225.349 61.2088 225.605 60.6966 226.117 60.1843C226.629 59.6721 227.398 59.416 228.166 59.416C228.934 59.416 229.702 59.6721 230.215 60.1843Z" fill="#FE5000"/>
<path d="M230.215 33.3611C230.727 33.8733 230.983 34.6416 230.983 35.1539C230.983 35.9222 230.727 36.4344 230.215 36.9466C229.702 37.4588 228.934 37.7149 228.166 37.7149C227.398 37.7149 226.629 37.4588 226.117 36.9466C225.605 36.4344 225.349 35.9222 225.349 35.1539C225.349 34.3855 225.605 33.8733 226.117 33.3611C226.629 32.8489 227.398 32.5928 228.166 32.5928C228.934 32.5928 229.702 32.8489 230.215 33.3611Z" fill="#FE5000"/>
<path d="M226.372 66.5879H230.214C230.47 66.5879 230.726 66.844 230.726 67.1001V78.625C230.726 80.1617 229.445 81.4422 227.909 81.4422H226.628C226.372 81.4422 226.116 81.1861 226.116 80.93V67.1001C225.86 66.844 226.116 66.5879 226.372 66.5879Z" fill="#FE5000"/>
<path d="M199.993 67.1007C201.018 67.869 202.042 68.6373 202.554 69.9179C203.323 71.1984 203.579 72.479 203.579 74.0156C203.579 75.5523 203.323 76.8328 202.554 78.1134C201.786 79.65 200.762 80.6745 199.225 81.1867C198.2 81.6989 197.176 81.955 195.895 81.6989C194.103 81.6989 192.822 81.1867 191.542 80.1622V83.4917C191.542 85.0283 190.261 86.3088 188.724 86.3088H187.444C187.188 86.3088 186.932 86.0527 186.932 85.7966V67.1007C186.932 66.8446 187.188 66.5885 187.444 66.5885H191.286C191.542 66.5885 191.798 66.8446 191.798 67.1007V67.869C193.078 66.8446 194.615 66.3324 196.408 66.3324C197.688 66.0763 198.969 66.3324 199.993 67.1007ZM197.944 76.8328C198.713 76.0645 198.969 75.2962 198.969 74.0156C198.969 72.9912 198.713 71.9668 197.944 71.1984C197.176 70.4301 196.408 70.174 195.383 70.174C194.615 70.174 194.103 70.4301 193.59 70.6862C193.078 70.9423 192.566 71.4545 192.31 71.9668C192.054 72.479 191.798 73.2473 191.798 74.0156C191.798 74.784 192.054 75.5523 192.31 76.0645C192.566 76.5767 193.078 77.0889 193.59 77.345C194.103 77.6012 194.871 77.8573 195.383 77.8573C196.408 77.8573 197.432 77.6012 197.944 76.8328Z" fill="#FE5000"/>
<path d="M219.458 67.1007C220.482 67.869 221.507 68.6373 222.019 69.9179C222.787 71.1984 223.044 72.479 223.044 74.0156C223.044 75.5523 222.787 76.8328 222.019 78.1134C221.251 79.65 220.226 80.6745 218.69 81.1867C217.665 81.6989 216.641 81.955 215.36 81.6989C213.568 81.6989 212.287 81.1867 211.006 80.1622V83.4917C211.006 85.0283 209.726 86.3088 208.189 86.3088H206.909C206.653 86.3088 206.396 86.0527 206.396 85.7966V67.1007C206.396 66.8446 206.653 66.5885 206.909 66.5885H210.75C211.006 66.5885 211.263 66.8446 211.263 67.1007V67.869C212.543 66.8446 214.08 66.3324 215.872 66.3324C217.153 66.0763 218.177 66.3324 219.458 67.1007ZM217.409 76.8328C218.177 76.0645 218.434 75.2962 218.434 74.0156C218.434 72.9912 218.177 71.9668 217.409 71.1984C216.641 70.4301 215.872 70.174 214.848 70.174C214.08 70.174 213.568 70.4301 213.055 70.6862C212.543 70.9423 212.031 71.4545 211.775 71.9668C211.519 72.479 211.263 73.2473 211.263 74.0156C211.263 74.784 211.519 75.5523 211.775 76.0645C212.031 76.5767 212.543 77.0889 213.055 77.345C213.568 77.6012 214.336 77.8573 214.848 77.8573C215.872 77.8573 216.641 77.6012 217.409 76.8328Z" fill="#FE5000"/>
<path d="M246.861 66.8451C247.629 67.3573 248.397 68.1257 248.909 69.1501C249.422 70.1745 249.678 71.199 249.678 72.4795V78.6261C249.678 80.1628 248.397 81.4433 246.861 81.4433H245.324C245.068 81.4433 244.812 81.1872 244.812 80.9311V73.2478C244.812 72.4795 244.556 71.7112 244.043 71.199C243.531 70.6867 243.019 70.4306 242.251 70.4306C241.226 70.4306 240.458 70.6867 239.946 71.4551C239.433 72.2234 239.177 73.2478 239.177 74.5284V78.6261C239.177 80.1628 237.897 81.4433 236.36 81.4433H235.08C234.823 81.4433 234.567 81.1872 234.567 80.9311V67.1012C234.567 66.8451 234.823 66.589 235.08 66.589H238.921C239.177 66.589 239.433 66.8451 239.433 67.1012V68.1257C239.946 67.6134 240.714 67.1012 241.482 66.8451C242.251 66.589 243.019 66.3329 244.043 66.3329C244.812 66.0768 245.836 66.3329 246.861 66.8451Z" fill="#FE5000"/>
<path d="M144.418 62.7474C146.467 64.284 145.699 67.3573 143.394 67.6135L142.881 67.8696C142.625 67.8696 142.369 67.8696 142.369 67.6135C142.113 66.8451 141.857 66.3329 141.345 66.0768C140.832 65.5646 140.064 65.3085 139.296 65.3085C138.527 65.3085 138.015 65.5646 137.503 65.8207C136.991 66.3329 136.735 66.589 136.735 67.3573C136.735 67.8696 136.735 68.1257 136.991 68.3818C137.247 68.6379 137.503 68.894 138.271 68.894L142.369 69.9184C144.162 70.4306 145.442 70.9429 146.211 71.9673C147.235 72.9917 147.491 74.2723 147.491 75.8089C147.491 77.0895 147.235 78.37 146.467 79.3945C145.699 80.4189 144.674 81.1872 143.65 81.6994C142.369 82.2116 141.089 82.4678 139.552 82.4678C137.247 82.4678 135.454 81.9555 133.918 80.9311C132.381 79.9067 131.613 78.6261 131.356 77.0895C131.356 76.8334 131.356 76.5772 131.613 76.5772L135.71 75.8089C135.966 75.8089 136.223 75.8089 136.223 76.065C136.735 77.8578 138.015 78.6261 139.808 78.6261C140.576 78.6261 141.345 78.37 141.857 78.1139C142.369 77.8578 142.625 77.3456 142.625 76.5772C142.625 76.065 142.369 75.8089 142.113 75.5528C141.857 75.2967 141.345 75.0406 140.832 75.0406L136.735 74.2723C135.198 74.0162 133.918 73.2478 132.893 72.4795C131.869 71.7112 131.356 70.1745 131.356 68.6379C131.356 67.3573 131.613 66.3329 132.381 65.3085C133.149 64.284 133.918 63.5157 135.198 63.0035C136.479 62.4913 137.759 62.2352 139.296 62.2352C141.089 61.2107 142.881 61.7229 144.418 62.7474Z" fill="#FE5000"/>
<path d="M267.094 83.7489C266.326 84.7733 265.302 85.5417 264.021 86.31C262.74 86.8222 261.204 87.0783 259.667 87.0783C257.874 87.0783 256.338 86.8222 255.057 86.0539C254.289 85.5417 253.521 85.0295 253.008 84.5172C252.496 84.005 252.752 83.2367 253.264 82.7245L255.826 81.4439C256.082 81.4439 256.338 81.4439 256.594 81.4439C257.106 81.9561 257.618 82.2122 257.874 82.4684C258.387 82.7245 258.899 82.9806 259.667 82.9806C260.692 82.9806 261.716 82.7245 262.228 81.9561C262.997 81.4439 263.253 80.4195 263.253 79.3951V78.8828C262.228 79.9073 260.692 80.4195 258.643 80.4195C257.362 80.4195 256.082 80.1634 255.057 79.3951C254.033 78.8828 253.008 77.8584 252.496 76.834C251.728 75.8095 251.472 74.529 251.472 72.9923C251.472 71.7118 251.728 70.4313 252.496 69.4068C253.264 68.3824 254.033 67.3579 255.057 66.8457C256.082 66.3335 257.362 65.8213 258.643 65.8213C260.435 65.8213 261.972 66.3335 263.253 67.3579V67.1018C263.253 66.8457 263.509 66.5896 263.765 66.5896H267.35C267.607 66.5896 267.863 66.8457 267.863 67.1018V79.9073C268.375 81.4439 267.863 82.7245 267.094 83.7489ZM262.484 75.8095C263.253 75.0412 263.509 74.2729 263.509 73.2484C263.509 72.224 263.253 71.4557 262.484 70.9435C261.716 70.1751 260.948 69.919 259.923 69.919C258.899 69.919 258.13 70.1751 257.362 70.9435C256.594 71.4557 256.338 72.4801 256.338 73.5046C256.338 74.529 256.594 75.2973 257.362 76.0656C258.13 76.834 258.899 77.0901 259.923 77.0901C261.204 76.834 261.972 76.3218 262.484 75.8095Z" fill="#FE5000"/>
<path d="M133.662 53.528V44.3081C133.662 44.052 133.405 44.052 133.405 44.3081L129.052 53.0158C128.795 53.7841 128.027 53.7841 127.259 53.7841H126.49C125.722 53.7841 125.21 53.2719 124.698 52.7597L120.344 44.5642C120.344 44.3081 120.088 44.5642 120.088 44.5642V51.4791C120.088 53.0158 118.807 54.2963 117.271 54.2963H115.734C115.478 54.2963 115.222 54.0402 115.222 53.7841V35.3443C115.222 34.5759 115.99 33.8076 116.758 33.8076H119.832C120.088 33.8076 120.344 34.0637 120.6 34.0637L126.49 45.0764C126.747 45.3325 127.259 45.3325 127.515 45.0764L133.405 34.0637C133.405 33.8076 133.662 33.8076 134.174 33.8076H136.991C137.759 33.8076 138.528 34.5759 138.528 35.3443V51.4791C138.528 53.0158 137.247 54.2963 135.71 54.2963H134.174C133.918 54.0402 133.662 53.7841 133.662 53.528Z" fill="#FE5000"/>
<mask id="mask0_2397_23381" style="mask-type:alpha" maskUnits="userSpaceOnUse" x="0" y="0" width="148" height="55">
<path d="M146.979 25.1722C140.064 25.4283 121.881 23.3795 112.917 1.61022C112.404 0.329677 110.612 -0.182545 109.587 0.585781C103.441 4.42741 88.5863 15.6962 83.2081 33.1116C83.2081 33.3677 82.6958 33.6238 82.4397 33.3677C69.3782 25.1722 66.561 9.8057 65.5366 1.098C65.2804 -0.182543 63.4877 -0.438648 62.9755 0.841896C47.3528 40.5387 14.3148 50.2709 0.484914 52.832C-0.283412 53.0881 -0.0273035 54.1125 0.484914 54.1125C12.0098 54.1125 37.8768 52.0636 59.9022 32.3433C60.1583 32.0872 60.6705 32.3433 60.9266 32.5994C78.342 64.8691 103.697 53.3442 109.587 50.0148C110.099 49.7587 109.843 48.9903 109.331 48.9903C104.209 47.7098 88.3302 41.8193 106.514 17.489C106.77 17.2329 107.026 17.2329 107.282 17.489C123.417 34.6482 140.833 29.0139 147.235 26.1967C147.747 25.9405 147.491 25.1722 146.979 25.1722ZM96.0135 47.9659C95.7574 48.222 95.2452 48.4781 94.733 48.4781C94.2207 48.4781 93.7085 48.222 93.4524 47.9659C93.1963 47.7098 92.9402 47.1976 92.9402 46.6854C92.9402 46.1731 93.1963 45.6609 93.4524 45.4048C93.7085 45.1487 94.2207 44.8926 94.733 44.8926C95.2452 44.8926 95.7574 45.1487 96.0135 45.4048C96.2696 45.6609 96.5257 46.1731 96.5257 46.6854C96.5257 47.1976 96.5257 47.7098 96.0135 47.9659Z" fill="white"/>
</mask>
<g mask="url(#mask0_2397_23381)">
<path d="M163.909 -30.7324H-12.8057V87.0776H163.909V-30.7324Z" fill="url(#paint0_linear_2397_23381)"/>
</g>
<defs>
<linearGradient id="paint0_linear_2397_23381" x1="-12.5069" y1="28.1519" x2="163.663" y2="28.1519" gradientUnits="userSpaceOnUse">
<stop stop-color="#55C0E8"/>
<stop offset="1" stop-color="#1B459C"/>
</linearGradient>
</defs>
</svg>
